<?xml version="1.0" encoding="utf-8"?>
<!-- Generator: Adobe Illustrator 17.1.0, SVG Export Plug-In . SVG Version: 6.00 Build 0)  -->
<!DOCTYPE svg PUBLIC "-//W3C//DTD SVG 1.1//EN" "http://www.w3.org/Graphics/SVG/1.1/DTD/svg11.dtd">
<svg version="1.1" id="Capa_1" xmlns="http://www.w3.org/2000/svg" xmlns:xlink="http://www.w3.org/1999/xlink" x="0px" y="0px"
	 viewBox="0 0 595.3 841.9" enable-background="new 0 0 595.3 841.9" xml:space="preserve">
<g>
	<path fill="#667069" d="M379.2,215.3c-4.4-6-12.9-7.3-19-2.9c-6,4.4-7.3,12.9-2.9,19c98.9,134.5,119.6,223.8,119.6,275
		c0,50.2-15,95.6-42.2,128c-31.7,37.8-77.8,57-137,57c-132.3,0-179.2-99.7-179.2-185c0-94.6,50.9-187,93.6-247.9
		c46.8-66.7,94.4-111.3,94.9-111.7c5.5-5.1,5.8-13.7,0.7-19.2c-5.1-5.5-13.7-5.8-19.2-0.7c-2,1.9-49.8,46.6-98.3,115.5
		c-45.1,64.2-98.9,162.1-98.9,264c0,56.3,17.5,108,49.3,145.6c36.9,43.6,91.2,66.6,157.1,66.6c66.7,0,121.2-23.1,157.9-66.7
		c31.3-37.3,48.6-89,48.6-145.5C504.1,406.3,436.1,292.9,379.2,215.3z"/>
	<path fill="#667069" d="M359.5,391.7L187.1,564.1c-5.3,5.3-5.3,13.9,0,19.2c2.7,2.7,6.1,4,9.6,4s7-1.3,9.6-4l172.4-172.4
		c5.3-5.3,5.3-13.9,0-19.2C373.4,386.4,364.8,386.4,359.5,391.7z"/>
	<path fill="#667069" d="M347.7,499.9c-24.1,0-43.7,19.6-43.7,43.7c0,24.1,19.6,43.7,43.7,43.7s43.7-19.6,43.7-43.7
		C391.4,519.5,371.8,499.9,347.7,499.9z M347.7,560.1c-9.1,0-16.5-7.4-16.5-16.5c0-9.1,7.4-16.5,16.5-16.5s16.5,7.4,16.5,16.5
		C364.2,552.7,356.8,560.1,347.7,560.1z"/>
	<path fill="#667069" d="M226.8,475c24.1,0,43.7-19.6,43.7-43.7s-19.6-43.7-43.7-43.7s-43.7,19.6-43.7,43.7S202.7,475,226.8,475z
		 M226.8,414.9c9.1,0,16.5,7.4,16.5,16.5s-7.4,16.5-16.5,16.5s-16.5-7.4-16.5-16.5S217.7,414.9,226.8,414.9z"/>
</g>
</svg>
