<?xml version="1.0" encoding="utf-8"?>
<!-- Generator: Adobe Illustrator 16.0.0, SVG Export Plug-In . SVG Version: 6.00 Build 0)  -->
<!DOCTYPE svg PUBLIC "-//W3C//DTD SVG 1.1//EN" "http://www.w3.org/Graphics/SVG/1.1/DTD/svg11.dtd">
<svg version="1.1" id="katman_1" xmlns="http://www.w3.org/2000/svg" xmlns:xlink="http://www.w3.org/1999/xlink" x="0px" y="0px"
	 width="52.25px" height="63px" viewBox="0 0 52.25 63" enable-background="new 0 0 52.25 63" xml:space="preserve">
<g>
	<path fill="#5CC3DD" d="M48.013,28.639c-0.233,0.782-0.488,1.55-0.76,2.306l-0.112,0.004l-0.314,0.01l-0.112,0.004l-0.421,0.01
		L6.769,32.2l-0.268,0.008H6.46l-0.406,0.013c-0.055-0.157-0.108-0.316-0.159-0.474C3.8,25.489,2.352,18.896,2.813,11.641h47.184
		C50.263,17.799,49.546,23.514,48.013,28.639z"/>
	<polygon fill="#E13253" points="12.667,26.43 12.478,23.165 13.423,21.356 14.746,19.653 17.476,18.834 19.983,18.834 
		23.181,20.337 23.902,21.395 22.846,22.64 20.56,24.345 19.3,26.179 17.372,25.624 13.893,26.43 12.325,26.928 	"/>
	<path fill="#FFFFFF" d="M12.145,28.886l-2.648-0.31l-1.819,0.621l-1.139,1.358l-0.043,1.87c0,0,0.343,5.023,8.952,2.1l0.361,0.002
		c0,0,5.056,2.07,8.339-0.155c0,0,5.417,3.244,9.957-0.713c0,0,3.491,3.104,8.961,1.513c0,0,6.169-2.099,2.483-6.809l-1.593-1.366
		l-0.813-0.98l-0.735-1.242l-1.975-1.047h-0.935h-0.597l-1.268-1.086l-1.452-1.707l-2.078-1.28h-3.531l-2.48,1.552l-1.011,0.78
		l-1.666,0.429l-1.67-0.021l-1.899,0.772l-1.668,1.531l-0.621,0.776l-0.424,0.466l-1.76-0.161h-2.199c0,0-1.28,0.639-1.396,0.653
		c-0.116,0.012-1.452,1.603-1.452,1.603L12.145,28.886z"/>
	<path fill="#FFDE00" d="M51.751,0.243v10.317c0.002,0.392,0,0.784-0.006,1.172h0.008V0.243H51.751z M2.813,11.641
		C2.352,18.896,3.8,25.489,5.895,31.747c0.096,1.876,1.464,3.41,3.256,3.773c0.062,0.01,0.123,0.021,0.184,0.032
		c0.063,0.009,0.13,0.019,0.19,0.024c0.527,0.074,1.08,0.112,1.652,0.112c1.809,0,3.43-0.373,4.524-0.966
		c1.115,0.599,2.565,0.966,4.147,0.966c1.558,0,2.983-0.353,4.09-0.937c0.037-0.021,0.074-0.041,0.106-0.06
		c0.045,0.033,0.083,0.06,0.128,0.084c0.586,0.369,1.289,0.668,2.068,0.867l-3.396,12.632l3.692,0.148l-2.493,10.128l6.023-12.988
		l-3.275-0.131l3.283-9.584c1.181-0.166,2.236-0.542,3.069-1.056c0.341-0.213,0.646-0.447,0.904-0.705
		c0.258,0.225,0.541,0.433,0.855,0.619c1.269,0.77,2.996,1.241,4.896,1.241c3.298,0,6.068-1.423,6.847-3.349
		c0.004-0.011,0.01-0.024,0.017-0.033c0.251-0.496,0.414-1.041,0.476-1.619l0.112-0.004c0.271-0.756,0.526-1.523,0.76-2.306
		c1.533-5.125,2.25-10.84,1.984-16.999H2.813z M48.672,22.853c-0.513,2.589-1.101,5.105-1.546,6.912
		c-0.11,0.443-0.21,0.844-0.3,1.195c-0.039,0.151-0.074,0.292-0.108,0.422c-0.174,0.684-0.282,1.081-0.282,1.081
		c-1.141,1.456-2.395,2.319-3.648,2.787c-1.813,0.67-3.631,0.513-5.129,0.104c-1.222-0.334-2.229-0.835-2.851-1.188
		c-0.004-0.003-0.006-0.005-0.011-0.007c-0.427-0.243-0.667-0.416-0.667-0.416c-0.211,0.141-0.419,0.271-0.627,0.392
		c-3.116,1.832-5.928,1.509-7.635,0.982c-0.006-0.002-0.014-0.004-0.021-0.006c-0.947-0.294-1.554-0.649-1.676-0.726
		c-0.016-0.008-0.024-0.014-0.024-0.014c-0.67,0.406-1.362,0.68-2.05,0.855c-0.015,0.004-0.027,0.006-0.039,0.008
		c-3.363,0.831-6.611-0.71-6.611-0.71c-1.452,0.481-2.673,0.753-3.696,0.863c-0.008,0-0.015,0.002-0.022,0.002
		c-0.06,0.006-0.123,0.013-0.182,0.019c-0.022,0.002-0.045,0.004-0.065,0.006c-2.628,0.217-3.904-0.665-4.517-1.694
		c-0.029-0.045-0.055-0.092-0.082-0.139c-0.2-0.376-0.316-0.767-0.384-1.123c0-0.007-0.002-0.013-0.002-0.019
		c-0.014-0.078-0.026-0.153-0.037-0.231c-0.088-0.669-0.008-1.176-0.008-1.176c-0.163-0.061-0.32-0.19-0.467-0.379
		C3.826,27.91,3.204,12.59,3.204,12.59l0.153-0.857h46.311l-0.112,0.531C50.15,14.077,49.52,18.565,48.672,22.853z M49.198,4.092
		h-1.307v6.438h1.307V4.092z M49.198,2.224h-1.307v1.289h1.307V2.224z M47.002,8.466V2.222h-1.31v6.336
		c0,0.641-0.33,0.796-0.747,0.796c-0.143,0-0.307,0-0.451-0.012v1.188c0.215,0.024,0.39,0.024,0.629,0.024
		C46.109,10.555,47.002,10.126,47.002,8.466z M42.029,10.624c1.28,0,1.98-0.755,1.98-2.089V4.217c0-1.332-0.7-2.091-1.98-2.091
		c-1.286,0-1.986,0.759-1.986,2.091v4.318C40.043,9.869,40.743,10.624,42.029,10.624z M43.139,36.056
		c-0.241-0.082-0.474-0.054-0.515,0.061l-1.307,3.723c-0.005,0.013-0.007,0.024-0.007,0.039c0,0.114,0.151,0.255,0.368,0.328
		c0.24,0.086,0.47,0.058,0.512-0.059l1.308-3.725c0.004-0.01,0.006-0.024,0.006-0.037C43.504,36.275,43.353,36.133,43.139,36.056z
		 M41.162,41.55c-0.264-0.09-0.509-0.069-0.55,0.049l-1.309,3.725c-0.004,0.013-0.006,0.024-0.006,0.035
		c0,0.114,0.165,0.261,0.402,0.347c0.263,0.092,0.512,0.067,0.553-0.047l1.309-3.725c0.005-0.01,0.007-0.022,0.007-0.034
		C41.568,41.783,41.398,41.634,41.162,41.55z M39.218,37.848c0.227,0.072,0.458,0.017,0.513-0.122l0.307-0.735
		c0.006-0.021,0.01-0.043,0.01-0.065c0-0.12-0.124-0.251-0.316-0.31c-0.225-0.07-0.455-0.013-0.513,0.124l-0.304,0.733
		c-0.011,0.021-0.015,0.045-0.015,0.065C38.899,37.66,39.026,37.791,39.218,37.848z M39.581,9.346h-2.149V2.222h-1.301v8.311h3.45
		V9.346z M39.132,47.045c-0.245-0.094-0.489-0.06-0.543,0.077l-0.273,0.725c-0.006,0.019-0.01,0.037-0.01,0.058
		c0,0.131,0.148,0.284,0.365,0.365c0.247,0.092,0.494,0.058,0.543-0.079l0.275-0.728c0.004-0.018,0.009-0.036,0.009-0.055
		C39.498,47.279,39.351,47.126,39.132,47.045z M39.399,38.675c0-0.105-0.133-0.227-0.322-0.281
		c-0.219-0.063-0.431-0.015-0.478,0.102l-1.438,3.749c-0.007,0.017-0.009,0.033-0.009,0.047c0,0.11,0.131,0.229,0.321,0.282
		c0.218,0.063,0.431,0.014,0.478-0.103l1.438-3.749C39.396,38.708,39.399,38.691,39.399,38.675z M36.992,43.861
		c-0.234-0.069-0.466-0.026-0.511,0.092l-1.453,3.743c-0.007,0.014-0.009,0.03-0.009,0.045c0,0.11,0.146,0.234,0.354,0.298
		c0.232,0.065,0.462,0.026,0.511-0.094l1.451-3.747c0.005-0.015,0.009-0.03,0.009-0.045C37.344,44.043,37.2,43.921,36.992,43.861z
		 M36.227,38.42l0.788-2.24c0-0.004,0-0.008,0-0.012c0-0.071-0.174-0.194-0.41-0.278c-0.251-0.085-0.474-0.102-0.5-0.028
		l-0.788,2.24c-0.003,0.004-0.003,0.01-0.003,0.014c0,0.072,0.178,0.192,0.413,0.276C35.976,38.479,36.2,38.491,36.227,38.42z
		 M34.732,39.451l-1.31,3.722c-0.004,0.013-0.006,0.027-0.006,0.037c0,0.118,0.161,0.262,0.386,0.339
		c0.251,0.088,0.49,0.063,0.531-0.055l1.309-3.723c0.002-0.01,0.004-0.022,0.004-0.037c0-0.114-0.157-0.257-0.386-0.337
		C35.01,39.311,34.771,39.333,34.732,39.451z M33.303,10.624c1.284,0,1.98-0.755,1.98-2.089V4.217c0-1.332-0.698-2.091-1.98-2.091
		s-1.986,0.759-1.986,2.091v4.318C31.316,9.869,32.021,10.624,33.303,10.624z M34.722,49.765c-0.27-0.076-0.522-0.043-0.569,0.075
		l-1.484,3.734c-0.007,0.015-0.007,0.026-0.007,0.039c0,0.114,0.168,0.247,0.404,0.316c0.268,0.078,0.523,0.045,0.57-0.073
		l1.484-3.736c0.006-0.013,0.008-0.027,0.008-0.039C35.128,49.969,34.959,49.836,34.722,49.765z M32.823,44.88l-1.308,3.723
		c-0.004,0.013-0.006,0.022-0.006,0.037c0,0.114,0.159,0.257,0.386,0.339c0.249,0.086,0.488,0.061,0.531-0.056l1.307-3.72
		c0.004-0.013,0.006-0.026,0.006-0.039c0-0.116-0.161-0.26-0.386-0.337C33.103,44.735,32.865,44.764,32.823,44.88z M33.331,35.425
		c-0.232-0.082-0.461-0.052-0.5,0.065l-1.311,3.722c-0.005,0.013-0.007,0.026-0.007,0.041c0,0.112,0.147,0.251,0.359,0.324
		c0.235,0.082,0.458,0.054,0.499-0.064l1.309-3.723c0.004-0.013,0.006-0.024,0.006-0.041C33.687,35.637,33.542,35.5,33.331,35.425z
		 M32.729,54.722c-0.236-0.075-0.476-0.021-0.53,0.114l-0.311,0.733c-0.006,0.019-0.01,0.041-0.01,0.062
		c0,0.124,0.135,0.257,0.332,0.318c0.239,0.075,0.476,0.022,0.537-0.112l0.307-0.731c0.008-0.02,0.012-0.04,0.012-0.063
		C33.065,54.92,32.931,54.785,32.729,54.722z M30.938,40.864l-0.986,2.808c-0.002,0.006-0.004,0.014-0.004,0.021
		c0,0.09,0.178,0.22,0.42,0.306c0.268,0.092,0.503,0.096,0.535,0.006l0.984-2.808c0.002-0.006,0.004-0.012,0.004-0.02
		c0-0.09-0.18-0.221-0.421-0.309C31.206,40.776,30.969,40.776,30.938,40.864z M31.291,50.686c-0.249-0.084-0.489-0.06-0.528,0.057
		l-1.309,3.721c-0.005,0.012-0.007,0.022-0.007,0.036c0,0.117,0.162,0.26,0.387,0.337c0.251,0.093,0.489,0.065,0.53-0.053
		l1.307-3.72c0.005-0.013,0.007-0.025,0.007-0.039C31.678,50.91,31.519,50.769,31.291,50.686z M27.961,7.151h0.449
		c0.59,0,0.857,0.28,0.857,1.054v1.307c0,0.674,0.047,0.807,0.117,1.019h1.329c-0.131-0.307-0.142-0.603-0.142-1.007V8.241
		c0-0.868-0.212-1.484-0.867-1.756V6.46c0.582-0.273,0.854-0.823,0.854-1.672V4.133c0-1.282-0.58-1.911-1.932-1.911h-1.968v8.309
		h1.302V7.151z M29.385,56.114c-0.254-0.09-0.488-0.065-0.531,0.054l-1.309,3.72c-0.004,0.013-0.007,0.024-0.007,0.037
		c0,0.114,0.162,0.257,0.387,0.337c0.253,0.092,0.489,0.063,0.53-0.051l1.309-3.725c0.005-0.013,0.007-0.024,0.007-0.037
		C29.771,56.335,29.609,56.192,29.385,56.114z M23.829,10.624c1.278,0,1.982-0.755,1.982-2.089V4.217
		c0-1.332-0.705-2.091-1.982-2.091c-1.287,0-1.983,0.759-1.983,2.091v4.318C21.846,9.869,22.544,10.624,23.829,10.624z
		 M23.686,38.931c0-0.629-0.511-1.138-1.137-1.138c-0.629,0-1.138,0.509-1.138,1.138c0,0.624,0.509,1.137,1.138,1.137
		C23.175,40.067,23.686,39.555,23.686,38.931z M20.907,55.337c0,0.647,0.526,1.176,1.174,1.176c0.649,0,1.18-0.524,1.18-1.176
		c0-0.647-0.531-1.179-1.18-1.179C21.433,54.158,20.907,54.686,20.907,55.337z M19.877,50.132c0,0.606,0.498,1.101,1.103,1.101
		c0.606,0,1.101-0.494,1.101-1.101s-0.492-1.104-1.101-1.104C20.375,49.027,19.879,49.525,19.877,50.132z M21.146,9.344h-2.256
		V6.906h1.795V5.722h-1.795V3.408h2.256V2.222h-3.561v8.309h3.561V9.344z M19.394,43.337c-0.641,0-1.166,0.524-1.166,1.166
		c0,0.641,0.525,1.163,1.166,1.163s1.166-0.522,1.166-1.163C20.56,43.861,20.035,43.337,19.394,43.337z M16.247,40.161
		c0.676,0,1.229-0.551,1.229-1.23c0-0.676-0.551-1.231-1.229-1.231c-0.68,0-1.233,0.556-1.233,1.231
		C15.014,39.61,15.567,40.161,16.247,40.161z M14.346,10.53h1.307V3.408h1.362V2.222h-4.033v1.187h1.364V10.53z M15.961,49.873
		c0.609,0,1.109-0.499,1.109-1.109c0-0.608-0.498-1.108-1.109-1.108c-0.612,0-1.106,0.498-1.106,1.108S15.349,49.873,15.961,49.873z
		 M9.015,43.869c5.227,9.415,11.626,14.686,15.057,17.027C18.111,56.024,12.959,50.722,9.015,43.869z M14.55,43.186
		c0-0.623-0.506-1.127-1.127-1.127c-0.619,0-1.125,0.504-1.125,1.127c0,0.614,0.506,1.119,1.125,1.119
		C14.044,44.305,14.55,43.802,14.55,43.186z M12.551,9.344h-2.256V6.906h1.793V5.722h-1.793V3.408h2.256V2.222H8.99v8.309h3.561
		V9.344z M11.44,37.905c0-0.642-0.522-1.162-1.166-1.162c-0.639,0-1.164,0.521-1.164,1.162c0,0.646,0.524,1.17,1.164,1.17
		C10.918,39.075,11.44,38.551,11.44,37.905z M3.694,4.654h0.022l0.949,5.876h1.237l0.878-5.96h0.025v5.96h1.233V2.222H6.219
		L5.341,8.121H5.321L4.37,2.222H2.556v8.309h1.138V4.654z M2.958,28.172c-1.115-4.743-1.848-10.077-2.15-16.143
		C1.015,18.038,1.792,23.4,2.958,28.172z M0.723,0.243H0.721v11.49h0.074c-0.029-0.568-0.051-1.146-0.072-1.728V0.243z"/>
	<path fill="none" d="M49.997,11.641H2.813C2.352,18.896,3.8,25.489,5.895,31.747c0.096,1.876,1.464,3.41,3.256,3.773
		c0.062,0.01,0.123,0.021,0.184,0.032c0.063,0.009,0.13,0.019,0.19,0.024c0.527,0.074,1.08,0.112,1.652,0.112
		c1.809,0,3.43-0.373,4.524-0.966c1.115,0.599,2.565,0.966,4.147,0.966c1.558,0,2.983-0.353,4.09-0.937
		c0.037-0.021,0.074-0.041,0.106-0.06c0.045,0.033,0.083,0.06,0.128,0.084c0.586,0.369,1.289,0.668,2.068,0.867l-3.396,12.632
		l3.692,0.148l-2.493,10.128l6.023-12.988l-3.275-0.131l3.283-9.584c1.181-0.166,2.236-0.542,3.069-1.056
		c0.341-0.213,0.646-0.447,0.904-0.705c0.258,0.225,0.541,0.433,0.855,0.619c1.269,0.77,2.996,1.241,4.896,1.241
		c3.298,0,6.068-1.423,6.847-3.349c0.004-0.011,0.01-0.024,0.017-0.033c0.251-0.496,0.414-1.041,0.476-1.619l0.112-0.004
		c0.271-0.756,0.526-1.523,0.76-2.306C49.546,23.514,50.263,17.799,49.997,11.641z M49.198,4.092h-1.307v6.438h1.307V4.092z
		 M49.198,2.224h-1.307v1.289h1.307V2.224z M47.002,8.466V2.222h-1.31v6.336c0,0.641-0.33,0.796-0.747,0.796
		c-0.143,0-0.307,0-0.451-0.012v1.188c0.215,0.024,0.39,0.024,0.629,0.024C46.109,10.555,47.002,10.126,47.002,8.466z
		 M42.029,10.624c1.28,0,1.98-0.755,1.98-2.089V4.217c0-1.332-0.7-2.091-1.98-2.091c-1.286,0-1.986,0.759-1.986,2.091v4.318
		C40.043,9.869,40.743,10.624,42.029,10.624z M43.139,36.056c-0.241-0.082-0.474-0.054-0.515,0.061l-1.307,3.723
		c-0.005,0.013-0.007,0.024-0.007,0.039c0,0.114,0.151,0.255,0.368,0.328c0.24,0.086,0.47,0.058,0.512-0.059l1.308-3.725
		c0.004-0.01,0.006-0.024,0.006-0.037C43.504,36.275,43.353,36.133,43.139,36.056z M41.162,41.55
		c-0.264-0.09-0.509-0.069-0.55,0.049l-1.309,3.725c-0.004,0.013-0.006,0.024-0.006,0.035c0,0.114,0.165,0.261,0.402,0.347
		c0.263,0.092,0.512,0.067,0.553-0.047l1.309-3.725c0.005-0.01,0.007-0.022,0.007-0.034C41.568,41.783,41.398,41.634,41.162,41.55z
		 M39.218,37.848c0.227,0.072,0.458,0.017,0.513-0.122l0.307-0.735c0.006-0.021,0.01-0.043,0.01-0.065
		c0-0.12-0.124-0.251-0.316-0.31c-0.225-0.07-0.455-0.013-0.513,0.124l-0.304,0.733c-0.011,0.021-0.015,0.045-0.015,0.065
		C38.899,37.66,39.026,37.791,39.218,37.848z M39.581,9.346h-2.149V2.222h-1.301v8.311h3.45V9.346z M39.132,47.045
		c-0.245-0.094-0.489-0.06-0.543,0.077l-0.273,0.725c-0.006,0.019-0.01,0.037-0.01,0.058c0,0.131,0.148,0.284,0.365,0.365
		c0.247,0.092,0.494,0.058,0.543-0.079l0.275-0.728c0.004-0.018,0.009-0.036,0.009-0.055C39.498,47.279,39.351,47.126,39.132,47.045
		z M39.399,38.675c0-0.105-0.133-0.227-0.322-0.281c-0.219-0.063-0.431-0.015-0.478,0.102l-1.438,3.749
		c-0.007,0.017-0.009,0.033-0.009,0.047c0,0.11,0.131,0.229,0.321,0.282c0.218,0.063,0.431,0.014,0.478-0.103l1.438-3.749
		C39.396,38.708,39.399,38.691,39.399,38.675z M36.992,43.861c-0.234-0.069-0.466-0.026-0.511,0.092l-1.453,3.743
		c-0.007,0.014-0.009,0.03-0.009,0.045c0,0.11,0.146,0.234,0.354,0.298c0.232,0.065,0.462,0.026,0.511-0.094l1.451-3.747
		c0.005-0.015,0.009-0.03,0.009-0.045C37.344,44.043,37.2,43.921,36.992,43.861z M36.227,38.42l0.788-2.24c0-0.004,0-0.008,0-0.012
		c0-0.071-0.174-0.194-0.41-0.278c-0.251-0.085-0.474-0.102-0.5-0.028l-0.788,2.24c-0.003,0.004-0.003,0.01-0.003,0.014
		c0,0.072,0.178,0.192,0.413,0.276C35.976,38.479,36.2,38.491,36.227,38.42z M34.732,39.451l-1.31,3.722
		c-0.004,0.013-0.006,0.027-0.006,0.037c0,0.118,0.161,0.262,0.386,0.339c0.251,0.088,0.49,0.063,0.531-0.055l1.309-3.723
		c0.002-0.01,0.004-0.022,0.004-0.037c0-0.114-0.157-0.257-0.386-0.337C35.01,39.311,34.771,39.333,34.732,39.451z M33.303,10.624
		c1.284,0,1.98-0.755,1.98-2.089V4.217c0-1.332-0.698-2.091-1.98-2.091s-1.986,0.759-1.986,2.091v4.318
		C31.316,9.869,32.021,10.624,33.303,10.624z M34.722,49.765c-0.27-0.076-0.522-0.043-0.569,0.075l-1.484,3.734
		c-0.007,0.015-0.007,0.026-0.007,0.039c0,0.114,0.168,0.247,0.404,0.316c0.268,0.078,0.523,0.045,0.57-0.073l1.484-3.736
		c0.006-0.013,0.008-0.027,0.008-0.039C35.128,49.969,34.959,49.836,34.722,49.765z M32.823,44.88l-1.308,3.723
		c-0.004,0.013-0.006,0.022-0.006,0.037c0,0.114,0.159,0.257,0.386,0.339c0.249,0.086,0.488,0.061,0.531-0.056l1.307-3.72
		c0.004-0.013,0.006-0.026,0.006-0.039c0-0.116-0.161-0.26-0.386-0.337C33.103,44.735,32.865,44.764,32.823,44.88z M33.331,35.425
		c-0.232-0.082-0.461-0.052-0.5,0.065l-1.311,3.722c-0.005,0.013-0.007,0.026-0.007,0.041c0,0.112,0.147,0.251,0.359,0.324
		c0.235,0.082,0.458,0.054,0.499-0.064l1.309-3.723c0.004-0.013,0.006-0.024,0.006-0.041C33.687,35.637,33.542,35.5,33.331,35.425z
		 M32.729,54.722c-0.236-0.075-0.476-0.021-0.53,0.114l-0.311,0.733c-0.006,0.019-0.01,0.041-0.01,0.062
		c0,0.124,0.135,0.257,0.332,0.318c0.239,0.075,0.476,0.022,0.537-0.112l0.307-0.731c0.008-0.02,0.012-0.04,0.012-0.063
		C33.065,54.92,32.931,54.785,32.729,54.722z M30.938,40.864l-0.986,2.808c-0.002,0.006-0.004,0.014-0.004,0.021
		c0,0.09,0.178,0.22,0.42,0.306c0.268,0.092,0.503,0.096,0.535,0.006l0.984-2.808c0.002-0.006,0.004-0.012,0.004-0.02
		c0-0.09-0.18-0.221-0.421-0.309C31.206,40.776,30.969,40.776,30.938,40.864z M31.291,50.686c-0.249-0.084-0.489-0.06-0.528,0.057
		l-1.309,3.721c-0.005,0.012-0.007,0.022-0.007,0.036c0,0.117,0.162,0.26,0.387,0.337c0.251,0.093,0.489,0.065,0.53-0.053
		l1.307-3.72c0.005-0.013,0.007-0.025,0.007-0.039C31.678,50.91,31.519,50.769,31.291,50.686z M27.961,7.151h0.449
		c0.59,0,0.857,0.28,0.857,1.054v1.307c0,0.674,0.047,0.807,0.117,1.019h1.329c-0.131-0.307-0.142-0.603-0.142-1.007V8.241
		c0-0.868-0.212-1.484-0.867-1.756V6.46c0.582-0.273,0.854-0.823,0.854-1.672V4.133c0-1.282-0.58-1.911-1.932-1.911h-1.968v8.309
		h1.302V7.151z M29.385,56.114c-0.254-0.09-0.488-0.065-0.531,0.054l-1.309,3.72c-0.004,0.013-0.007,0.024-0.007,0.037
		c0,0.114,0.162,0.257,0.387,0.337c0.253,0.092,0.489,0.063,0.53-0.051l1.309-3.725c0.005-0.013,0.007-0.024,0.007-0.037
		C29.771,56.335,29.609,56.192,29.385,56.114z M23.829,10.624c1.278,0,1.982-0.755,1.982-2.089V4.217
		c0-1.332-0.705-2.091-1.982-2.091c-1.287,0-1.983,0.759-1.983,2.091v4.318C21.846,9.869,22.544,10.624,23.829,10.624z
		 M23.686,38.931c0-0.629-0.511-1.138-1.137-1.138c-0.629,0-1.138,0.509-1.138,1.138c0,0.624,0.509,1.137,1.138,1.137
		C23.175,40.067,23.686,39.555,23.686,38.931z M22.081,54.158c-0.647,0-1.174,0.527-1.174,1.179c0,0.647,0.526,1.176,1.174,1.176
		c0.649,0,1.18-0.524,1.18-1.176C23.261,54.689,22.73,54.158,22.081,54.158z M22.081,50.132c0-0.606-0.492-1.104-1.101-1.104
		c-0.604,0-1.101,0.498-1.103,1.104c0,0.606,0.498,1.101,1.103,1.101C21.586,51.232,22.081,50.738,22.081,50.132z M21.146,9.344
		h-2.256V6.906h1.795V5.722h-1.795V3.408h2.256V2.222h-3.561v8.309h3.561V9.344z M20.56,44.503c0-0.642-0.525-1.166-1.166-1.166
		s-1.166,0.524-1.166,1.166c0,0.641,0.525,1.163,1.166,1.163S20.56,45.144,20.56,44.503z M16.247,37.699
		c-0.68,0-1.233,0.556-1.233,1.231c0,0.68,0.553,1.23,1.233,1.23c0.676,0,1.229-0.551,1.229-1.23
		C17.476,38.255,16.925,37.699,16.247,37.699z M14.346,10.53h1.307V3.408h1.362V2.222h-4.033v1.187h1.364V10.53z M15.961,47.655
		c-0.612,0-1.106,0.498-1.106,1.108s0.494,1.109,1.106,1.109c0.609,0,1.109-0.499,1.109-1.109
		C17.07,48.155,16.572,47.655,15.961,47.655z M13.423,42.059c-0.619,0-1.125,0.504-1.125,1.127c0,0.614,0.506,1.119,1.125,1.119
		c0.621,0,1.127-0.503,1.127-1.119C14.55,42.563,14.044,42.059,13.423,42.059z M12.551,9.344h-2.256V6.906h1.793V5.722h-1.793V3.408
		h2.256V2.222H8.99v8.309h3.561V9.344z M10.274,36.743c-0.639,0-1.164,0.521-1.164,1.162c0,0.646,0.524,1.17,1.164,1.17
		c0.644,0,1.166-0.524,1.166-1.17C11.44,37.264,10.918,36.743,10.274,36.743z M9.015,43.869c-2.399-4.32-4.551-9.511-6.056-15.697
		C4.386,34.272,6.446,39.402,9.015,43.869z M3.694,4.654h0.022l0.949,5.876h1.237l0.878-5.96h0.025v5.96h1.233V2.222H6.219
		L5.341,8.121H5.321L4.37,2.222H2.556v8.309h1.138V4.654z M0.794,11.733c0.004,0.092,0.008,0.184,0.012,0.273
		c-0.004-0.092-0.008-0.182-0.01-0.273H0.794z"/>
	<path fill="#FFDE00" d="M0.723,0.243v9.762c0.021,0.582,0.043,1.16,0.072,1.728h0.002c0.002,0.092,0.006,0.182,0.01,0.273
		c0.002,0.008,0.002,0.016,0.002,0.022c0.302,6.066,1.035,11.4,2.15,16.143c1.505,6.187,3.657,11.377,6.056,15.697
		c3.945,6.853,9.097,12.155,15.057,17.027c0,0,0.002,0.004,0.004,0.004c0.798,0.656,1.615,1.303,2.442,1.944
		C42.044,51.416,51.5,35.092,51.745,11.733c0.006-0.388,0.008-0.78,0.006-1.172V0.243H0.723z M47.892,2.224h1.307v1.289h-1.307
		V2.224z M47.892,4.092h1.307v6.438h-1.307V4.092z M44.494,9.342c0.145,0.012,0.309,0.012,0.451,0.012
		c0.417,0,0.747-0.155,0.747-0.796V2.222h1.31v6.244c0,1.66-0.893,2.089-1.879,2.089c-0.239,0-0.414,0-0.629-0.024V9.342z
		 M40.043,4.217c0-1.332,0.7-2.091,1.986-2.091c1.28,0,1.98,0.759,1.98,2.091v4.318c0,1.333-0.7,2.089-1.98,2.089
		c-1.286,0-1.986-0.755-1.986-2.089V4.217z M36.131,2.222h1.301v7.124h2.149v1.187h-3.45V2.222z M31.316,4.217
		c0-1.332,0.704-2.091,1.986-2.091s1.98,0.759,1.98,2.091v4.318c0,1.333-0.696,2.089-1.98,2.089c-1.282,0-1.986-0.755-1.986-2.089
		V4.217z M26.659,2.222h1.968c1.352,0,1.932,0.629,1.932,1.911v0.656c0,0.849-0.271,1.398-0.854,1.672v0.025
		c0.655,0.271,0.867,0.888,0.867,1.756v1.282c0,0.404,0.011,0.7,0.142,1.007h-1.329c-0.07-0.212-0.117-0.345-0.117-1.019V8.205
		c0-0.774-0.268-1.054-0.857-1.054h-0.449v3.379h-1.302V2.222z M21.846,4.217c0-1.332,0.696-2.091,1.983-2.091
		c1.278,0,1.982,0.759,1.982,2.091v4.318c0,1.333-0.705,2.089-1.982,2.089c-1.285,0-1.983-0.755-1.983-2.089V4.217z M17.584,2.222
		h3.561v1.187h-2.256v2.313h1.795v1.184h-1.795v2.438h2.256v1.187h-3.561V2.222z M12.982,2.222h4.033v1.187h-1.362v7.122h-1.307
		V3.408h-1.364V2.222z M8.99,2.222h3.561v1.187h-2.256v2.313h1.793v1.184h-1.793v2.438h2.256v1.187H8.99V2.222z M2.556,2.222H4.37
		l0.951,5.899h0.021l0.878-5.899h1.819v8.309H6.806V4.57H6.781l-0.878,5.96H4.666L3.716,4.654H3.694v5.876H2.556V2.222z
		 M10.274,39.075c-0.639,0-1.164-0.524-1.164-1.17c0-0.642,0.524-1.162,1.164-1.162c0.644,0,1.166,0.521,1.166,1.162
		C11.44,38.551,10.918,39.075,10.274,39.075z M13.423,44.305c-0.619,0-1.125-0.505-1.125-1.119c0-0.623,0.506-1.127,1.125-1.127
		c0.621,0,1.127,0.504,1.127,1.127C14.55,43.802,14.044,44.305,13.423,44.305z M15.961,49.873c-0.612,0-1.106-0.499-1.106-1.109
		s0.494-1.108,1.106-1.108c0.611,0,1.109,0.5,1.109,1.108C17.07,49.374,16.57,49.873,15.961,49.873z M16.247,40.161
		c-0.68,0-1.233-0.551-1.233-1.23c0-0.676,0.553-1.231,1.233-1.231c0.678,0,1.229,0.556,1.229,1.231
		C17.476,39.61,16.923,40.161,16.247,40.161z M18.228,44.503c0-0.642,0.525-1.166,1.166-1.166s1.166,0.524,1.166,1.166
		c0,0.641-0.525,1.163-1.166,1.163S18.228,45.144,18.228,44.503z M19.877,50.132c0.002-0.606,0.498-1.104,1.103-1.104
		c0.608,0,1.101,0.498,1.101,1.104s-0.494,1.101-1.101,1.101C20.375,51.232,19.877,50.738,19.877,50.132z M21.411,38.931
		c0-0.629,0.509-1.138,1.138-1.138c0.626,0,1.137,0.509,1.137,1.138c0,0.624-0.511,1.137-1.137,1.137
		C21.919,40.067,21.411,39.555,21.411,38.931z M22.081,56.513c-0.647,0-1.174-0.528-1.174-1.176c0-0.651,0.526-1.179,1.174-1.179
		c0.649,0,1.18,0.531,1.18,1.179C23.261,55.988,22.73,56.513,22.081,56.513z M24.045,58.553l2.493-10.128l-3.692-0.148l3.396-12.632
		c-0.78-0.199-1.482-0.498-2.068-0.867c-0.045-0.024-0.083-0.051-0.128-0.084c-0.033,0.019-0.069,0.039-0.106,0.06
		c-1.106,0.584-2.532,0.937-4.09,0.937c-1.582,0-3.032-0.367-4.147-0.966c-1.094,0.593-2.715,0.966-4.524,0.966
		c-0.572,0-1.125-0.038-1.652-0.112c-0.06-0.006-0.127-0.016-0.19-0.024c-0.062-0.012-0.123-0.022-0.184-0.032
		c-1.792-0.363-3.161-1.897-3.256-3.773C3.8,25.489,2.352,18.896,2.813,11.641h47.184c0.266,6.159-0.451,11.874-1.984,16.999
		c-0.233,0.782-0.488,1.55-0.76,2.306l-0.112,0.004c-0.062,0.578-0.225,1.123-0.476,1.619c-0.007,0.009-0.013,0.022-0.017,0.033
		c-0.778,1.926-3.549,3.349-6.847,3.349c-1.9,0-3.628-0.472-4.896-1.241c-0.314-0.187-0.598-0.395-0.855-0.619
		c-0.259,0.258-0.563,0.492-0.904,0.705c-0.833,0.514-1.889,0.89-3.069,1.056l-3.283,9.584l3.275,0.131L24.045,58.553z
		 M41.568,41.899c0,0.012-0.002,0.024-0.007,0.034l-1.309,3.725c-0.041,0.114-0.29,0.139-0.553,0.047
		c-0.237-0.086-0.402-0.232-0.402-0.347c0-0.011,0.002-0.022,0.006-0.035l1.309-3.725c0.041-0.118,0.286-0.139,0.55-0.049
		C41.398,41.634,41.568,41.783,41.568,41.899z M41.311,39.878c0-0.015,0.002-0.026,0.007-0.039l1.307-3.723
		c0.041-0.114,0.273-0.143,0.515-0.061c0.214,0.077,0.365,0.22,0.365,0.33c0,0.013-0.002,0.027-0.006,0.037l-1.308,3.725
		c-0.042,0.116-0.271,0.145-0.512,0.059C41.462,40.133,41.311,39.992,41.311,39.878z M39.498,47.408
		c0,0.019-0.005,0.037-0.009,0.055l-0.275,0.728c-0.049,0.137-0.296,0.171-0.543,0.079c-0.217-0.081-0.365-0.234-0.365-0.365
		c0-0.021,0.004-0.039,0.01-0.058l0.273-0.725c0.054-0.137,0.298-0.171,0.543-0.077C39.351,47.126,39.498,47.279,39.498,47.408z
		 M40.037,36.99l-0.307,0.735c-0.055,0.139-0.286,0.194-0.513,0.122c-0.191-0.057-0.318-0.188-0.318-0.31
		c0-0.021,0.004-0.045,0.015-0.065l0.304-0.733c0.058-0.137,0.288-0.194,0.513-0.124c0.192,0.059,0.316,0.189,0.316,0.31
		C40.047,36.947,40.043,36.97,40.037,36.99z M39.077,38.394c0.189,0.055,0.322,0.176,0.322,0.281c0,0.017-0.004,0.033-0.01,0.047
		l-1.438,3.749c-0.047,0.116-0.26,0.166-0.478,0.103c-0.19-0.054-0.321-0.172-0.321-0.282c0-0.014,0.002-0.03,0.009-0.047
		l1.438-3.749C38.646,38.379,38.858,38.33,39.077,38.394z M37.344,44.153c0,0.015-0.004,0.03-0.009,0.045l-1.451,3.747
		c-0.049,0.12-0.278,0.159-0.511,0.094c-0.208-0.063-0.354-0.188-0.354-0.298c0-0.015,0.002-0.031,0.009-0.045l1.453-3.743
		c0.045-0.118,0.276-0.161,0.511-0.092C37.2,43.921,37.344,44.043,37.344,44.153z M37.015,36.18l-0.788,2.24
		c-0.026,0.071-0.251,0.06-0.5-0.028c-0.235-0.084-0.413-0.204-0.413-0.276c0-0.004,0-0.01,0.003-0.014l0.788-2.24
		c0.026-0.073,0.249-0.057,0.5,0.028c0.236,0.084,0.41,0.207,0.41,0.278C37.015,36.172,37.015,36.176,37.015,36.18z M35.646,39.734
		c0,0.015-0.002,0.027-0.004,0.037l-1.309,3.723c-0.041,0.118-0.28,0.143-0.531,0.055c-0.225-0.077-0.386-0.221-0.386-0.339
		c0-0.01,0.002-0.024,0.006-0.037l1.31-3.722c0.038-0.118,0.277-0.141,0.528-0.054C35.489,39.478,35.646,39.62,35.646,39.734z
		 M32.427,48.923c-0.043,0.116-0.282,0.142-0.531,0.056c-0.227-0.082-0.386-0.225-0.386-0.339c0-0.015,0.002-0.024,0.006-0.037
		l1.308-3.723c0.042-0.116,0.279-0.145,0.53-0.053c0.225,0.077,0.386,0.221,0.386,0.337c0,0.013-0.002,0.026-0.006,0.039
		L32.427,48.923z M32.729,54.722c0.202,0.063,0.337,0.198,0.337,0.321c0,0.022-0.004,0.043-0.012,0.063l-0.307,0.731
		c-0.062,0.135-0.298,0.188-0.537,0.112c-0.197-0.062-0.332-0.194-0.332-0.318c0-0.021,0.004-0.043,0.01-0.062l0.311-0.733
		C32.253,54.701,32.492,54.646,32.729,54.722z M33.681,35.79l-1.309,3.723c-0.041,0.118-0.264,0.146-0.499,0.064
		c-0.212-0.073-0.359-0.212-0.359-0.324c0-0.015,0.002-0.028,0.007-0.041l1.311-3.722c0.039-0.117,0.268-0.147,0.5-0.065
		c0.211,0.075,0.355,0.212,0.355,0.324C33.687,35.766,33.685,35.777,33.681,35.79z M31.892,41.177c0,0.008-0.002,0.014-0.004,0.02
		l-0.984,2.808c-0.032,0.09-0.268,0.086-0.535-0.006c-0.242-0.086-0.42-0.216-0.42-0.306c0-0.007,0.002-0.015,0.004-0.021
		l0.986-2.808c0.03-0.088,0.268-0.088,0.532,0.004C31.712,40.956,31.892,41.087,31.892,41.177z M30.763,50.742
		c0.039-0.116,0.279-0.141,0.528-0.057c0.228,0.083,0.387,0.225,0.387,0.339c0,0.014-0.002,0.026-0.007,0.039l-1.307,3.72
		c-0.041,0.118-0.279,0.146-0.53,0.053c-0.225-0.077-0.387-0.22-0.387-0.337c0-0.014,0.002-0.024,0.007-0.036L30.763,50.742z
		 M29.771,56.449c0,0.013-0.002,0.024-0.007,0.037l-1.309,3.725c-0.041,0.114-0.277,0.143-0.53,0.051
		c-0.225-0.08-0.387-0.223-0.387-0.337c0-0.013,0.003-0.024,0.007-0.037l1.309-3.72c0.043-0.119,0.277-0.144,0.531-0.054
		C29.609,56.192,29.771,56.335,29.771,56.449z M33.065,53.93c-0.236-0.069-0.404-0.202-0.404-0.316c0-0.013,0-0.024,0.007-0.039
		l1.484-3.734c0.047-0.118,0.3-0.151,0.569-0.075c0.237,0.071,0.406,0.204,0.406,0.316c0,0.012-0.002,0.026-0.008,0.039
		l-1.484,3.736C33.589,53.975,33.333,54.008,33.065,53.93z"/>
	<path fill="none" d="M6.538,31.498c-0.029-0.08-0.057-0.157-0.086-0.239"/>
	<path fill="#FFFFFF" d="M11.44,37.905c0,0.646-0.522,1.17-1.166,1.17c-0.639,0-1.164-0.524-1.164-1.17
		c0-0.642,0.524-1.162,1.164-1.162C10.918,36.743,11.44,37.264,11.44,37.905z"/>
	<path fill="#FFFFFF" d="M17.476,38.931c0,0.68-0.553,1.23-1.229,1.23c-0.68,0-1.233-0.551-1.233-1.23
		c0-0.676,0.553-1.231,1.233-1.231C16.925,37.699,17.476,38.255,17.476,38.931z"/>
	<path fill="#FFFFFF" d="M14.55,43.186c0,0.616-0.506,1.119-1.127,1.119c-0.619,0-1.125-0.505-1.125-1.119
		c0-0.623,0.506-1.127,1.125-1.127C14.044,42.059,14.55,42.563,14.55,43.186z"/>
	<path fill="#FFFFFF" d="M20.56,44.503c0,0.641-0.525,1.163-1.166,1.163s-1.166-0.522-1.166-1.163c0-0.642,0.525-1.166,1.166-1.166
		S20.56,43.861,20.56,44.503z"/>
	<circle fill="#FFFFFF" cx="15.962" cy="48.764" r="1.108"/>
	<path fill="#FFFFFF" d="M22.081,50.132c0,0.606-0.494,1.101-1.101,1.101c-0.604,0-1.103-0.494-1.103-1.101
		c0.002-0.606,0.498-1.104,1.103-1.104C21.588,49.027,22.081,49.525,22.081,50.132z"/>
	<circle fill="#FFFFFF" cx="22.084" cy="55.337" r="1.177"/>
	<path fill="#FFFFFF" d="M23.686,38.931c0,0.624-0.511,1.137-1.137,1.137c-0.629,0-1.138-0.513-1.138-1.137
		c0-0.629,0.509-1.138,1.138-1.138C23.175,37.793,23.686,38.302,23.686,38.931z"/>
	<path fill="#4D5867" d="M19.3,26.179c0,0.004-0.006,0.01-0.006,0.017c-0.004-0.006-0.012-0.012-0.019-0.017
		C19.283,26.179,19.292,26.177,19.3,26.179z"/>
	<g>
		<g>
			<g>
				<path fill="#FFDE00" d="M25.323,20.145c-0.307,0.194-0.707,0.1-0.898-0.206c-0.19-0.306-0.098-0.71,0.208-0.898
					c0.033-0.021,0.063-0.037,0.098-0.047c0,0,0.008-0.004,0.026-0.012c0.274-0.114,2.473-1.021,2.624-1.013
					c0,0,0.115-0.002-0.014,0.147c-0.114,0.13-1.627,1.642-1.909,1.921c-0.031,0.03-0.047,0.047-0.047,0.047
					C25.384,20.106,25.356,20.127,25.323,20.145z"/>
			</g>
			<g>
				<path fill="#FFDE00" d="M23.287,17.787c-0.198,0.305-0.598,0.388-0.902,0.196c-0.304-0.196-0.392-0.601-0.196-0.902
					c0.021-0.033,0.041-0.062,0.067-0.088c0,0,0.006-0.008,0.018-0.022c0.2-0.219,1.801-1.977,1.94-2.032
					c0,0,0.102-0.051,0.051,0.135c-0.047,0.169-0.774,2.183-0.907,2.554c-0.017,0.041-0.022,0.063-0.022,0.063
					C23.322,17.724,23.306,17.752,23.287,17.787z"/>
			</g>
			<g>
				<path fill="#FFDE00" d="M20.42,16.407c-0.087,0.349-0.441,0.562-0.792,0.476c-0.349-0.088-0.562-0.439-0.478-0.79
					c0.008-0.035,0.022-0.072,0.039-0.102c0,0,0.004-0.01,0.012-0.027c0.114-0.273,1.062-2.454,1.176-2.552
					c0,0,0.08-0.08,0.094,0.114c0.008,0.174-0.024,2.315-0.033,2.711c0,0.039,0,0.065,0,0.065
					C20.433,16.331,20.429,16.368,20.42,16.407z"/>
			</g>
			<g>
				<path fill="#FFDE00" d="M17.362,16.221c0.063,0.355-0.171,0.69-0.527,0.755c-0.355,0.063-0.694-0.171-0.757-0.527
					c-0.006-0.039-0.01-0.073-0.006-0.108c0,0,0-0.012,0-0.031c-0.004-0.296-0.03-2.673,0.035-2.81c0,0,0.039-0.106,0.129,0.065
					c0.082,0.155,0.921,2.124,1.074,2.491c0.019,0.037,0.027,0.057,0.027,0.057C17.346,16.149,17.356,16.18,17.362,16.221z"/>
			</g>
			<g>
				<path fill="#FFDE00" d="M14.462,17.154c0.214,0.292,0.149,0.698-0.141,0.913c-0.292,0.212-0.703,0.147-0.915-0.143
					c-0.021-0.029-0.039-0.062-0.055-0.096c0,0-0.002-0.006-0.012-0.026c-0.133-0.266-1.194-2.391-1.194-2.544
					c0,0-0.012-0.112,0.143,0.002c0.143,0.106,1.758,1.507,2.058,1.769c0.033,0.026,0.049,0.043,0.049,0.043
					C14.416,17.095,14.44,17.121,14.462,17.154z"/>
			</g>
			<g>
				<path fill="#FFDE00" d="M12.024,19.137c0.304,0.194,0.39,0.596,0.198,0.9c-0.194,0.306-0.601,0.392-0.903,0.198
					c-0.033-0.018-0.059-0.042-0.083-0.067c0,0-0.008-0.006-0.022-0.022c-0.221-0.198-1.983-1.791-2.038-1.932
					c0,0-0.053-0.098,0.137-0.049c0.167,0.045,2.183,0.766,2.556,0.9c0.041,0.01,0.06,0.021,0.06,0.021
					C11.959,19.098,11.992,19.114,12.024,19.137z"/>
			</g>
			<g>
				<path fill="#FFDE00" d="M10.736,21.999c0.354,0.065,0.584,0.407,0.521,0.762c-0.067,0.354-0.409,0.588-0.762,0.521
					c-0.037-0.006-0.071-0.016-0.106-0.03c0,0-0.006-0.002-0.028-0.012c-0.278-0.1-2.509-0.915-2.616-1.025
					c0,0-0.083-0.075,0.108-0.098c0.173-0.024,2.312-0.112,2.709-0.129c0.041-0.004,0.065-0.002,0.065-0.002
					C10.663,21.989,10.697,21.993,10.736,21.999z"/>
			</g>
			<g>
				<path fill="#FFDE00" d="M10.44,25.133c0.357-0.061,0.692,0.18,0.751,0.533c0.063,0.357-0.178,0.694-0.531,0.755
					c-0.037,0.004-0.074,0.006-0.108,0.006c0,0-0.01,0-0.031,0c-0.298,0-2.675,0.01-2.813-0.058c0,0-0.104-0.039,0.069-0.126
					c0.153-0.082,2.132-0.904,2.497-1.058c0.039-0.019,0.06-0.026,0.06-0.026C10.369,25.15,10.403,25.14,10.44,25.133z"/>
			</g>
		</g>
	</g>
	<path fill="#E13253" d="M30.201,35.483l-0.015,0.039l-0.11,0.327l-3.283,9.584l3.275,0.131l-6.023,12.988l2.493-10.128
		l-3.692-0.148l3.396-12.632l0.008-0.034c0.78,0.281,1.538,0.259,2.272,0.002c0.06-0.019,0.116-0.041,0.176-0.063
		c0.055,0.028,0.11,0.051,0.167,0.073c0.219,0.074,0.46,0.093,0.701,0.039c0.143-0.03,0.281-0.065,0.418-0.11
		C30.056,35.532,30.13,35.508,30.201,35.483z"/>
	<path fill="#4D5867" d="M15.808,34.089c-0.019,0.011-0.035,0.019-0.049,0.026c-0.026-0.014-0.053-0.028-0.077-0.047
		C15.724,34.081,15.761,34.085,15.808,34.089z"/>
	<g>
		<g>
			<polygon fill="#2B4557" points="8.039,2.222 8.039,10.53 6.806,10.53 6.806,4.57 6.781,4.57 5.903,10.53 4.666,10.53 
				3.716,4.654 3.694,4.654 3.694,10.53 2.556,10.53 2.556,2.222 4.37,2.222 5.321,8.121 5.341,8.121 6.219,2.222 			"/>
			<polygon fill="#2B4557" points="10.295,3.408 10.295,5.722 12.088,5.722 12.088,6.906 10.295,6.906 10.295,9.344 12.551,9.344 
				12.551,10.53 8.99,10.53 8.99,2.222 12.551,2.222 12.551,3.408 			"/>
			<polygon fill="#2B4557" points="17.015,2.222 17.015,3.408 15.653,3.408 15.653,10.53 14.346,10.53 14.346,3.408 12.982,3.408 
				12.982,2.222 			"/>
			<polygon fill="#2B4557" points="18.889,3.408 18.889,5.722 20.684,5.722 20.684,6.906 18.889,6.906 18.889,9.344 21.146,9.344 
				21.146,10.53 17.584,10.53 17.584,2.222 21.146,2.222 21.146,3.408 			"/>
			<path fill="#2B4557" d="M23.829,2.126c-1.287,0-1.983,0.759-1.983,2.091v4.318c0,1.333,0.698,2.089,1.983,2.089
				c1.278,0,1.982-0.755,1.982-2.089V4.217C25.811,2.885,25.106,2.126,23.829,2.126z M24.502,8.619c0,0.59-0.259,0.819-0.674,0.819
				c-0.419,0-0.678-0.222-0.678-0.819V4.133c0-0.594,0.259-0.816,0.678-0.816c0.415,0,0.674,0.222,0.674,0.816V8.619z"/>
			<path fill="#2B4557" d="M30.572,9.523V8.241c0-0.868-0.212-1.484-0.867-1.756V6.46c0.582-0.273,0.854-0.823,0.854-1.672V4.133
				c0-1.282-0.58-1.911-1.932-1.911h-1.968v8.309h1.302V7.151h0.449c0.59,0,0.857,0.28,0.857,1.054v1.307
				c0,0.674,0.047,0.807,0.117,1.019h1.329C30.583,10.224,30.572,9.928,30.572,9.523z M29.254,5.083
				c0,0.666-0.296,0.876-0.782,0.876h-0.511v-2.55h0.627c0.462,0,0.666,0.259,0.666,0.854V5.083z"/>
			<path fill="#2B4557" d="M33.303,2.126c-1.282,0-1.986,0.759-1.986,2.091v4.318c0,1.333,0.704,2.089,1.986,2.089
				c1.284,0,1.98-0.755,1.98-2.089V4.217C35.283,2.885,34.585,2.126,33.303,2.126z M33.979,8.619c0,0.59-0.264,0.819-0.676,0.819
				c-0.417,0-0.678-0.222-0.678-0.819V4.133c0-0.594,0.261-0.816,0.678-0.816c0.412,0,0.676,0.222,0.676,0.816V8.619z"/>
			<polygon fill="#2B4557" points="39.581,9.346 39.581,10.532 36.131,10.532 36.131,2.222 37.432,2.222 37.432,9.346 			"/>
			<path fill="#2B4557" d="M42.029,2.126c-1.286,0-1.986,0.759-1.986,2.091v4.318c0,1.333,0.7,2.089,1.986,2.089
				c1.28,0,1.98-0.755,1.98-2.089V4.217C44.01,2.885,43.31,2.126,42.029,2.126z M42.701,8.619c0,0.59-0.257,0.819-0.672,0.819
				c-0.416,0-0.68-0.222-0.68-0.819V4.133c0-0.594,0.264-0.816,0.68-0.816c0.413,0,0.672,0.222,0.672,0.816V8.619z"/>
			<path fill="#2B4557" d="M47.002,2.222v6.244c0,1.66-0.893,2.089-1.879,2.089c-0.239,0-0.414,0-0.629-0.024V9.342
				c0.145,0.012,0.309,0.012,0.451,0.012c0.417,0,0.747-0.155,0.747-0.796V2.222H47.002z"/>
			<path fill="#2B4557" d="M47.892,2.224v1.289h1.307V2.224H47.892z M47.892,4.092v6.438h1.307V4.092H47.892z"/>
		</g>
	</g>
	<path fill="#FFFFFF" d="M33.687,35.749c0,0.017-0.002,0.028-0.006,0.041l-1.309,3.723c-0.041,0.118-0.264,0.146-0.499,0.064
		c-0.212-0.073-0.359-0.212-0.359-0.324c0-0.015,0.002-0.028,0.007-0.041l1.311-3.722c0.039-0.117,0.268-0.147,0.5-0.065
		C33.542,35.5,33.687,35.637,33.687,35.749z"/>
	<path fill="#FFFFFF" d="M31.892,41.177c0,0.008-0.002,0.014-0.004,0.02l-0.984,2.808c-0.032,0.09-0.268,0.086-0.535-0.006
		c-0.242-0.086-0.42-0.216-0.42-0.306c0-0.007,0.002-0.015,0.004-0.021l0.986-2.808c0.03-0.088,0.268-0.088,0.532,0.004
		C31.712,40.956,31.892,41.087,31.892,41.177z"/>
	<path fill="#FFFFFF" d="M31.678,51.024c0,0.014-0.002,0.026-0.007,0.039l-1.307,3.72c-0.041,0.118-0.279,0.146-0.53,0.053
		c-0.225-0.077-0.387-0.22-0.387-0.337c0-0.014,0.002-0.024,0.007-0.036l1.309-3.721c0.039-0.116,0.279-0.141,0.528-0.057
		C31.519,50.769,31.678,50.91,31.678,51.024z"/>
	<path fill="#FFFFFF" d="M29.771,56.449c0,0.013-0.002,0.024-0.007,0.037l-1.309,3.725c-0.041,0.114-0.277,0.143-0.53,0.051
		c-0.225-0.08-0.387-0.223-0.387-0.337c0-0.013,0.003-0.024,0.007-0.037l1.309-3.72c0.043-0.119,0.277-0.144,0.531-0.054
		C29.609,56.192,29.771,56.335,29.771,56.449z"/>
	<path fill="#FFFFFF" d="M35.646,39.734c0,0.015-0.002,0.027-0.004,0.037l-1.309,3.723c-0.041,0.118-0.28,0.143-0.531,0.055
		c-0.225-0.077-0.386-0.221-0.386-0.339c0-0.01,0.002-0.024,0.006-0.037l1.31-3.722c0.038-0.118,0.277-0.141,0.528-0.054
		C35.489,39.478,35.646,39.62,35.646,39.734z"/>
	<path fill="#FFFFFF" d="M37.015,36.168c0,0.004,0,0.008,0,0.012l-0.788,2.24c-0.026,0.071-0.251,0.06-0.5-0.028
		c-0.235-0.084-0.413-0.204-0.413-0.276c0-0.004,0-0.01,0.003-0.014l0.788-2.24c0.026-0.073,0.249-0.057,0.5,0.028
		C36.841,35.974,37.015,36.097,37.015,36.168z"/>
	<path fill="#FFFFFF" d="M33.739,45.164c0,0.013-0.002,0.026-0.006,0.039l-1.307,3.72c-0.043,0.116-0.282,0.142-0.531,0.056
		c-0.227-0.082-0.386-0.225-0.386-0.339c0-0.015,0.002-0.024,0.006-0.037l1.308-3.723c0.042-0.116,0.279-0.145,0.53-0.053
		C33.578,44.904,33.739,45.048,33.739,45.164z"/>
	<path fill="#FFFFFF" d="M35.128,50.081c0,0.012-0.002,0.026-0.008,0.039l-1.484,3.736c-0.047,0.118-0.303,0.151-0.57,0.073
		c-0.236-0.069-0.404-0.202-0.404-0.316c0-0.013,0-0.024,0.007-0.039l1.484-3.734c0.047-0.118,0.3-0.151,0.569-0.075
		C34.959,49.836,35.128,49.969,35.128,50.081z"/>
	<path fill="#FFFFFF" d="M39.399,38.675c0,0.017-0.004,0.033-0.01,0.047l-1.438,3.749c-0.047,0.116-0.26,0.166-0.478,0.103
		c-0.19-0.054-0.321-0.172-0.321-0.282c0-0.014,0.002-0.03,0.009-0.047l1.438-3.749c0.047-0.116,0.259-0.165,0.478-0.102
		C39.267,38.448,39.399,38.569,39.399,38.675z"/>
	<path fill="#FFFFFF" d="M37.344,44.153c0,0.015-0.004,0.03-0.009,0.045l-1.451,3.747c-0.049,0.12-0.278,0.159-0.511,0.094
		c-0.208-0.063-0.354-0.188-0.354-0.298c0-0.015,0.002-0.031,0.009-0.045l1.453-3.743c0.045-0.118,0.276-0.161,0.511-0.092
		C37.2,43.921,37.344,44.043,37.344,44.153z"/>
	<path fill="#FFFFFF" d="M41.568,41.899c0,0.012-0.002,0.024-0.007,0.034l-1.309,3.725c-0.041,0.114-0.29,0.139-0.553,0.047
		c-0.237-0.086-0.402-0.232-0.402-0.347c0-0.011,0.002-0.022,0.006-0.035l1.309-3.725c0.041-0.118,0.286-0.139,0.55-0.049
		C41.398,41.634,41.568,41.783,41.568,41.899z"/>
	<path fill="#FFFFFF" d="M43.504,36.386c0,0.013-0.002,0.027-0.006,0.037l-1.308,3.725c-0.042,0.116-0.271,0.145-0.512,0.059
		c-0.217-0.073-0.368-0.214-0.368-0.328c0-0.015,0.002-0.026,0.007-0.039l1.307-3.723c0.041-0.114,0.273-0.143,0.515-0.061
		C43.353,36.133,43.504,36.275,43.504,36.386z"/>
	<path fill="#FFFFFF" d="M39.498,47.408c0,0.019-0.005,0.037-0.009,0.055l-0.275,0.728c-0.049,0.137-0.296,0.171-0.543,0.079
		c-0.217-0.081-0.365-0.234-0.365-0.365c0-0.021,0.004-0.039,0.01-0.058l0.273-0.725c0.054-0.137,0.298-0.171,0.543-0.077
		C39.351,47.126,39.498,47.279,39.498,47.408z"/>
	<path fill="#FFFFFF" d="M40.047,36.925c0,0.022-0.004,0.045-0.01,0.065l-0.307,0.735c-0.055,0.139-0.286,0.194-0.513,0.122
		c-0.191-0.057-0.318-0.188-0.318-0.31c0-0.021,0.004-0.045,0.015-0.065l0.304-0.733c0.058-0.137,0.288-0.194,0.513-0.124
		C39.923,36.674,40.047,36.805,40.047,36.925z"/>
	<path fill="#FFFFFF" d="M33.065,55.043c0,0.022-0.004,0.043-0.012,0.063l-0.307,0.731c-0.062,0.135-0.298,0.188-0.537,0.112
		c-0.197-0.062-0.332-0.194-0.332-0.318c0-0.021,0.004-0.043,0.01-0.062l0.311-0.733c0.055-0.135,0.294-0.189,0.53-0.114
		C32.931,54.785,33.065,54.92,33.065,55.043z"/>
	<path fill="#4D5867" d="M13.215,26.602c0.026,0.078,0.055,0.159,0.088,0.237c-0.294,0.069-0.547,0.28-0.705,0.553
		c-0.041-0.094-0.083-0.19-0.121-0.29L13.215,26.602z"/>
	<path fill="#4D5867" d="M23.745,22.391c-0.016,0.006-0.033,0.017-0.047,0.022c-0.002-0.006-0.006-0.016-0.012-0.024L23.745,22.391z
		"/>
	<path fill="#FFDE00" d="M25.321,22.446l-1.576-0.053l-0.059-0.002c-0.888-1.952-2.856-3.308-5.142-3.308
		c-3.12,0-5.65,2.53-5.65,5.65c0,0.655,0.112,1.282,0.319,1.87l-0.737,0.5l-0.153,0.104l-0.004,1.154
		c-0.498-0.972-0.78-2.075-0.78-3.245c0-3.949,3.202-7.146,7.148-7.146C21.69,17.969,24.261,19.82,25.321,22.446z"/>
	<path fill="#EDEDED" d="M47.126,29.771c0.002-0.002,0.002-0.004,0-0.006c-0.106-0.788-0.406-1.513-0.852-2.127
		c-0.604-0.833-1.47-1.448-2.475-1.728c-0.01-0.102-0.026-0.202-0.043-0.304c0.002,0,0,0,0-0.002
		c-0.232-1.28-1.08-2.344-2.215-2.865c0,0-0.003,0-0.005,0c-0.474-0.216-1.002-0.337-1.558-0.337c-0.412,0-0.814,0.067-1.187,0.19
		c-0.094-0.249-0.202-0.488-0.322-0.719c-0.131-0.253-0.277-0.492-0.439-0.725c-1.235-1.772-3.283-2.937-5.604-2.937
		c-2.377,0-4.464,1.211-5.683,3.051c-0.026,0.035-0.045,0.071-0.069,0.106c-0.233-0.065-0.468-0.116-0.712-0.157
		c-0.352-0.053-0.707-0.082-1.072-0.082c-0.09,0-0.18,0.002-0.27,0.004c-0.286,0.012-0.565,0.041-0.839,0.086
		c-0.237,0.037-0.469,0.088-0.696,0.153c-1.972,0.535-3.587,1.931-4.422,3.757c-0.008,0.014-0.017,0.031-0.022,0.047
		c-0.082-0.016-0.167-0.031-0.249-0.039c-0.623-0.313-1.327-0.492-2.073-0.492c-1.282,0-2.442,0.521-3.277,1.362
		c-0.135,0.131-0.26,0.271-0.374,0.421c-0.125,0.157-0.241,0.324-0.343,0.502c-0.129,0.219-0.241,0.447-0.333,0.688
		c-0.043,0.106-0.08,0.215-0.112,0.325c-0.574-0.304-1.227-0.482-1.923-0.482c-0.986,0-1.887,0.35-2.591,0.931
		c-0.69,0.568-1.186,1.358-1.38,2.261c-0.063,0.282-0.096,0.578-0.096,0.878c0,0.073,0.002,0.145,0.006,0.216
		c0.096,1.876,1.464,3.41,3.256,3.773c0.062,0.01,0.123,0.021,0.184,0.032c0.063,0.009,0.13,0.019,0.19,0.024
		c0.527,0.074,1.08,0.112,1.652,0.112c1.809,0,3.43-0.373,4.524-0.966c1.115,0.599,2.565,0.966,4.147,0.966
		c1.558,0,2.983-0.353,4.09-0.937c0.037-0.021,0.074-0.041,0.106-0.06c0.045,0.033,0.083,0.06,0.128,0.084
		c0.586,0.369,1.289,0.668,2.068,0.867c0.748,0.196,1.569,0.305,2.43,0.305c0.481,0,0.953-0.032,1.404-0.1
		c1.181-0.166,2.236-0.542,3.069-1.056c0.341-0.213,0.646-0.447,0.904-0.705c0.258,0.225,0.541,0.433,0.855,0.619
		c1.269,0.77,2.996,1.241,4.896,1.241c3.298,0,6.068-1.423,6.847-3.349c0.004-0.011,0.01-0.024,0.017-0.033
		c0.251-0.496,0.414-1.041,0.476-1.619c0.019-0.171,0.028-0.349,0.028-0.527C47.171,30.201,47.154,29.983,47.126,29.771z
		 M39.897,35.363c-2.48,0-4.651-0.821-5.844-2.05c-1.045,1.225-3.055,2.05-5.365,2.05c-1.791,0-3.404-0.498-4.523-1.299
		c-1.113,0.676-2.602,1.086-4.243,1.086c-1.599,0-3.061-0.392-4.161-1.037c-0.002,0-0.006-0.002-0.008-0.004
		c-0.002,0-0.002,0.002-0.004,0.002c-0.658,0.318-1.446,0.597-2.312,0.797c-1.415,0.328-2.754,0.384-3.745,0.202
		c-1.607-0.162-2.867-1.395-2.924-2.91c-0.004-0.039-0.004-0.075-0.004-0.112c0-1.682,1.48-3.044,3.304-3.044
		c0.845,0,1.611,0.29,2.195,0.77c0.204-2.001,2.036-3.569,4.262-3.569c1.047,0,2.011,0.349,2.752,0.927
		c0.004,0.002,0.012,0.01,0.02,0.014c0-0.004,0.002-0.012,0.004-0.014c0.562-2.258,2.754-3.945,5.372-3.945
		c0.882,0,1.715,0.192,2.452,0.535c0.966-1.848,3.012-3.12,5.387-3.12c2.823,0,5.192,1.805,5.813,4.241
		c0.441-0.206,0.941-0.323,1.475-0.323c1.742,0,3.171,1.246,3.292,2.826v0.006c0.018,0.006,0.038,0.008,0.059,0.01
		c0.002,0.002,0.002,0.002,0.011,0.002c0.663,0.229,1.264,0.523,1.772,0.866c0.806,0.67,1.327,1.632,1.359,2.704
		c0.004,0.041,0.004,0.082,0.004,0.121c0.004,0.078,0.002,0.147-0.004,0.216c0,0.045-0.006,0.088-0.01,0.131
		c-0.011,0.094-0.017,0.184-0.039,0.271c-0.009,0.053-0.017,0.104-0.028,0.153c-0.013,0.053-0.027,0.106-0.039,0.157
		c-0.017,0.056-0.035,0.108-0.049,0.166c-0.011,0.034-0.024,0.067-0.035,0.1c-0.012,0.039-0.028,0.082-0.047,0.116
		c-0.021,0.058-0.041,0.11-0.067,0.163c-0.026,0.058-0.06,0.117-0.088,0.183c-0.03,0.053-0.062,0.104-0.092,0.159
		c-0.053,0.092-0.114,0.186-0.178,0.27c-0.043,0.065-0.092,0.126-0.139,0.189c-0.047,0.056-0.096,0.114-0.149,0.168
		c-0.028,0.032-0.053,0.063-0.081,0.09c-0.099,0.1-0.2,0.195-0.313,0.285c-0.022,0.022-0.047,0.041-0.076,0.062
		c-0.055,0.049-0.116,0.096-0.18,0.137c-0.064,0.051-0.13,0.092-0.197,0.133c-0.024,0.017-0.043,0.026-0.062,0.039
		c-0.062,0.036-0.125,0.071-0.192,0.104c-0.012,0.013-0.028,0.019-0.043,0.024c-0.073,0.041-0.148,0.08-0.225,0.112
		c-0.004,0-0.014,0.005-0.016,0.005c0.002,0,0.01,0,0.012,0.002C42.826,35.053,41.417,35.363,39.897,35.363z"/>
	<path fill="#FFDE00" d="M48.013,28.639l-0.887,1.131c0.707-2.287,1.201-4.664,1.546-6.918c0.775-5.06,0.807-9.531,0.786-11.12
		c0-0.031,0-0.062-0.002-0.092h0.541C50.263,17.799,49.546,23.514,48.013,28.639z"/>
</g>
</svg>
