<?xml version="1.0" encoding="utf-8"?>
<!-- Generator: Adobe Illustrator 17.1.0, SVG Export Plug-In . SVG Version: 6.00 Build 0)  -->
<!DOCTYPE svg PUBLIC "-//W3C//DTD SVG 1.1//EN" "http://www.w3.org/Graphics/SVG/1.1/DTD/svg11.dtd">
<svg version="1.1" id="Layer_1" xmlns="http://www.w3.org/2000/svg" xmlns:xlink="http://www.w3.org/1999/xlink" x="0px" y="0px"
	 viewBox="0 0 595.3 841.9" enable-background="new 0 0 595.3 841.9" xml:space="preserve">
<g>
	<g>
		<g>
			<path fill="#667069" d="M288.1,541.6c-5.5-49.5-49.5-88.2-102.7-88.2c-42.2,0-79.5,24.2-95.4,60.9c-0.2,0-0.3,0-0.5,0
				C40.2,514.3,0,554,0,602.9c0,48.9,40.2,88.6,89.6,88.6c0.9,0,1.7,0,2.6,0c0.3,0,0.6,0,0.9,0h191.7c0.7,0,1.3-0.1,2-0.2
				c39.6-2.7,70.5-35.4,70.5-74.9C357.2,577.3,326.8,545.1,288.1,541.6z M284.1,669.8c-0.3,0-0.5,0-0.8,0.1H94.3
				c-0.6-0.1-1.2-0.1-1.8-0.1c-38.6,1.5-70.9-29-70.9-66.9c0-36.9,30.5-67,67.9-67c2.3,0,4.5,0.1,6.7,0.3c4.9,0.6,9.7-2.6,11.3-7.3
				c10.8-32.2,42.1-53.9,77.8-53.9c45,0,81.6,34.6,81.6,77.2c0,3,1.2,5.8,3.4,7.8c2.1,2,5,3.2,8,3c1,0,1.9-0.1,2.9-0.1
				c29.9,0,54.2,24,54.2,53.4C335.5,644.9,313,668.3,284.1,669.8z"/>
			<path fill="#667069" d="M308.5,388.3c0.7,0.1,1.3,0.2,2,0.2h191.7c0.3,0,0.6,0,0.9,0c0.8,0,1.7,0,2.6,0
				c49.4,0,89.6-39.8,89.6-88.6c0-48.9-40.2-88.6-89.6-88.6c-0.2,0-0.3,0-0.5,0c-15.9-36.7-53.2-60.9-95.4-60.9
				c-53.2,0-97.1,38.7-102.7,88.2c-38.7,3.4-69.1,35.7-69.1,74.8C238.1,352.9,268.9,385.5,308.5,388.3z M314,259.9c1,0,2,0,2.9,0.1
				c2.9,0.1,5.8-1,8-3c2.1-2,3.4-4.9,3.4-7.9c0-42.5,36.6-77.1,81.6-77.1c35.8,0,67.1,21.6,77.8,53.9c1.6,4.8,6.4,7.8,11.3,7.3
				c2.2-0.2,4.5-0.3,6.7-0.3c37.4,0,67.9,30,67.9,67c0,37.9-32.4,68.6-70.9,66.9c-0.2,0-0.3,0-0.5,0c-0.4,0-0.8,0-1.2,0.1H311.9
				c-0.3,0-0.5-0.1-0.8-0.1c-28.8-1.5-51.4-24.9-51.4-53.4C259.8,283.9,284.1,259.9,314,259.9z"/>
			<path fill="#667069" d="M191.7,385.7L85.4,399.9c-5.9,0.8-10.1,6.2-9.3,12.2c0.7,5.4,5.4,9.4,10.7,9.4c0.5,0,1,0,1.4-0.1
				l118.4-15.7c3.1-0.4,5.8-2.1,7.6-4.7c1.7-2.6,2.3-5.8,1.5-8.8l-30.5-114.7c-1.5-5.8-7.5-9.2-13.2-7.7c-5.8,1.5-9.2,7.5-7.7,13.2
				L191.7,385.7z"/>
			<path fill="#667069" d="M10.8,378.1c0.5,0,1,0,1.4-0.1l118.5-15.7c3.1-0.4,5.8-2.1,7.6-4.7c1.7-2.6,2.3-5.8,1.5-8.8l-30.5-114.7
				c-1.5-5.8-7.5-9.2-13.2-7.7c-5.8,1.5-9.2,7.5-7.7,13.2l27.3,102.8L9.4,356.6c-5.9,0.8-10.1,6.2-9.3,12.2
				C0.8,374.2,5.5,378.1,10.8,378.1z"/>
			<path fill="#667069" d="M382.2,478.3l106.3-14.1c5.9-0.8,10.1-6.2,9.3-12.2c-0.8-5.9-6.2-10.1-12.2-9.3l-118.5,15.7
				c-3.1,0.4-5.8,2.1-7.6,4.7c-1.7,2.6-2.3,5.8-1.5,8.8l30.5,114.7c1.3,4.9,5.7,8,10.5,8c0.9,0,1.9-0.1,2.8-0.4
				c5.8-1.5,9.2-7.5,7.7-13.2L382.2,478.3z"/>
			<path fill="#667069" d="M561.4,507.6l-118.5,15.7c-3.1,0.4-5.8,2.1-7.6,4.7c-1.7,2.6-2.3,5.8-1.5,8.8l30.5,114.7
				c1.3,4.9,5.7,8,10.5,8c0.9,0,1.9-0.1,2.8-0.4c5.8-1.5,9.2-7.5,7.7-13.2L458,543.2l106.3-14.1c5.9-0.8,10.1-6.2,9.3-12.2
				C572.8,511,567.3,506.9,561.4,507.6z"/>
		</g>
	</g>
</g>
</svg>
