<?xml version="1.0" encoding="utf-8"?>
<!-- Generator: Adobe Illustrator 17.1.0, SVG Export Plug-In . SVG Version: 6.00 Build 0)  -->
<!DOCTYPE svg PUBLIC "-//W3C//DTD SVG 1.1//EN" "http://www.w3.org/Graphics/SVG/1.1/DTD/svg11.dtd">
<svg version="1.1" id="Capa_1" xmlns="http://www.w3.org/2000/svg" xmlns:xlink="http://www.w3.org/1999/xlink" x="0px" y="0px"
	 viewBox="0 0 595.3 841.9" enable-background="new 0 0 595.3 841.9" xml:space="preserve">
<g>
	<path fill="#667069" d="M595.3,210.4v24.1H502v-24.1H595.3z M556.2,262.9H502v24.1h54.2V262.9z M502,339.4h93.3v-24.1H502
		L502,339.4L502,339.4z M556.2,367.8H502v24.1h54.2V367.8z M502,444.3h93.3v-24.1H502L502,444.3L502,444.3z M516.5,581.5
		c0,67.2-54.7,121.9-121.9,121.9c-28.4,0-54.6-9.9-75.4-26.3c-8,15.5-21.9,35.4-27.9,35.3c-8.5-0.1-33.8-41.4-33.8-51.2
		c0,0,0-0.1,0-0.1l-0.2-0.3h0.3c0.2-13.3,11.7-24.4,27-27c-4.5-9.4-7.8-19.4-9.8-29.9c-93.8-8.4-167.6-87-167.6-182.9
		c0-101.5,82.6-184.1,184.1-184.1c14.3,0,28.2,1.9,41.5,5v-41.7c0-34,27.7-61.7,61.7-61.7s61.7,27.7,61.7,61.7v276.3
		C493.7,498.4,516.5,537.9,516.5,581.5z M333,476.5V266.6c-13.3-3.6-27.1-5.7-41.5-5.7c-88.2,0-160,71.8-160,160
		c0,81.9,62,149.3,141.5,158.5C273.6,536.8,296.2,498,333,476.5z M492.5,581.5c0-37-20.5-70.4-53.6-87.1l-6.6-3.3V200.2
		c0-20.8-16.9-37.6-37.6-37.6c-20.7,0-37.6,16.9-37.6,37.6V491l-6.6,3.3c-33.1,16.8-53.6,50.2-53.6,87.1c0,53.9,43.9,97.8,97.8,97.8
		S492.5,635.4,492.5,581.5z M257.7,181.1c0.3,15.2,15.3,27.6,33.8,27.6c18.6,0,33.5-12.3,33.8-27.6h0.3l-0.2-0.3v-0.1
		c0-9.8-25.3-51.2-33.8-51.3c-8.5-0.1-33.8,41.4-33.8,51.3l0,0.1l-0.2,0.3C257.5,181.1,257.7,181.1,257.7,181.1z M51.6,387.2V387
		l-0.3,0.2c0,0,0,0-0.1,0c-9.8,0-51.2,25.3-51.3,33.8c-0.1,8.5,41.4,33.8,51.3,33.8c0,0,0.1,0,0.1,0l0.3,0.2v-0.2
		c15.2-0.3,27.6-15.3,27.6-33.8C79.2,402.4,66.9,387.5,51.6,387.2z M97.8,275.1l0.1,0.3l0.1-0.1c11,10.6,30.3,8.7,43.4-4.4
		c13.1-13.1,15-32.4,4.4-43.4l0.2-0.2l-0.3-0.1c0,0,0-0.1-0.1-0.1c-7-7-54-18.3-60.1-12.3C79.2,220.8,90.7,268,97.8,275.1
		C97.7,275.1,97.7,275.1,97.8,275.1z M141.4,571c-13.1-13.1-32.4-14.9-43.4-4.4l-0.2-0.1l-0.1,0.3c0,0,0,0,0,0
		c-7,7-18.3,54-12.4,60.1c6,6.2,53.2-5.3,60.1-12.3c0,0,0,0,0,0l0.3-0.1l-0.1-0.1C156.4,603.5,154.5,584.1,141.4,571z"/>
</g>
<path fill="#B9BEBB" d="M472.4,581.5c0,42.9-34.9,77.7-77.7,77.7c-42.9,0-77.7-34.9-77.7-77.7c0-35.1,23.7-66,57.7-75l4.5-1.2V237.7
	h31.1v267.6l4.5,1.2C448.7,515.5,472.4,546.4,472.4,581.5z"/>
<path fill="#FFFFFF" d="M398.5,529.7c-1.9-8.2-10.1-13.6-18.6-11.7c-29.5,6.7-50,32.4-50,62.7c0,8.6,7,15.5,15.5,15.5
	s15.5-7,15.5-15.5c0-15.4,10.9-29,25.8-32.4C395.1,546.3,400.4,538,398.5,529.7z"/>
</svg>
