<?xml version="1.0" encoding="utf-8"?>
<!-- Generator: Adobe Illustrator 17.1.0, SVG Export Plug-In . SVG Version: 6.00 Build 0)  -->
<!DOCTYPE svg PUBLIC "-//W3C//DTD SVG 1.1//EN" "http://www.w3.org/Graphics/SVG/1.1/DTD/svg11.dtd">
<svg version="1.1" id="Capa_1" xmlns="http://www.w3.org/2000/svg" xmlns:xlink="http://www.w3.org/1999/xlink" x="0px" y="0px"
	 viewBox="0 0 595.3 841.9" enable-background="new 0 0 595.3 841.9" xml:space="preserve">
<g>
	<g>
		<path fill="#667069" d="M498.6,431.9H12.2c-6.7,0-12.2-5.5-12.2-12.2s5.5-12.2,12.2-12.2h484c0.8-0.1,1.6-0.2,2.4-0.2
			c39.9,0,72.3-32.4,72.3-72.3s-32.4-72.3-72.3-72.3s-72.3,32.4-72.3,72.3c0,6.7-5.5,12.2-12.2,12.2c-6.7,0-12.2-5.5-12.2-12.2
			c0-53.3,43.4-96.7,96.7-96.7s96.7,43.4,96.7,96.7c0,52.5-42,95.3-94.2,96.7C500.3,431.8,499.4,431.9,498.6,431.9z"/>
	</g>
	<g>
		<path fill="#667069" d="M248.1,347.2H12.2C5.5,347.2,0,341.8,0,335c0-6.7,5.5-12.2,12.2-12.2h233.5c0.8-0.1,1.6-0.2,2.4-0.2
			c39.9,0,72.3-32.4,72.3-72.3S287.9,178,248.1,178c-39.9,0-72.3,32.4-72.3,72.3c0,6.7-5.5,12.2-12.2,12.2s-12.2-5.5-12.2-12.2
			c0-53.3,43.4-96.7,96.7-96.7s96.7,43.4,96.7,96.7c0,52.5-42,95.3-94.2,96.7C249.8,347.2,248.9,347.2,248.1,347.2z"/>
	</g>
	<g>
		<path fill="#667069" d="M397.8,688.3c-53.3,0-96.7-43.4-96.7-96.7c0-6.7,5.5-12.2,12.2-12.2c6.7,0,12.2,5.5,12.2,12.2
			c0,39.9,32.4,72.3,72.3,72.3c39.9,0,72.3-32.4,72.3-72.3c0-39.9-32.4-72.3-72.3-72.3H12.2c-6.7,0-12.2-5.5-12.2-12.2
			s5.5-12.2,12.2-12.2h385.5c53.3,0,96.7,43.4,96.7,96.7C494.5,644.9,451.1,688.3,397.8,688.3z"/>
	</g>
</g>
</svg>
